<mxfile host="Electron" agent="Mozilla/5.0 (Windows NT 10.0; Win64; x64) AppleWebKit/537.36 (KHTML, like Gecko) draw.io/28.1.2 Chrome/138.0.7204.243 Electron/37.4.0 Safari/537.36" version="28.1.2">
  <diagram name="第 1 页" id="_KrfIET2W_x7kCQmwO5U">
    <mxGraphModel dx="1106" dy="762" grid="1" gridSize="10" guides="1" tooltips="1" connect="1" arrows="1" fold="1" page="1" pageScale="1" pageWidth="827" pageHeight="1169" math="0" shadow="0">
      <root>
        <mxCell id="0" />
        <mxCell id="1" parent="0" />
        <mxCell id="F-6AjOzPrQF_bU0hyuUf-1" value="PLC_Client&lt;div&gt;管理连接和IO&lt;/div&gt;" style="rounded=1;whiteSpace=wrap;html=1;" vertex="1" parent="1">
          <mxGeometry x="220" y="230" width="120" height="60" as="geometry" />
        </mxCell>
        <mxCell id="F-6AjOzPrQF_bU0hyuUf-2" value="DataLoger&lt;div&gt;管理日志&lt;/div&gt;" style="rounded=1;whiteSpace=wrap;html=1;" vertex="1" parent="1">
          <mxGeometry x="510" y="495" width="120" height="60" as="geometry" />
        </mxCell>
        <mxCell id="F-6AjOzPrQF_bU0hyuUf-7" style="edgeStyle=orthogonalEdgeStyle;rounded=0;orthogonalLoop=1;jettySize=auto;html=1;exitX=0.5;exitY=1;exitDx=0;exitDy=0;entryX=0;entryY=0.5;entryDx=0;entryDy=0;" edge="1" parent="1" source="F-6AjOzPrQF_bU0hyuUf-3" target="F-6AjOzPrQF_bU0hyuUf-2">
          <mxGeometry relative="1" as="geometry" />
        </mxCell>
        <mxCell id="F-6AjOzPrQF_bU0hyuUf-10" value="警报信息传入" style="edgeLabel;html=1;align=center;verticalAlign=middle;resizable=0;points=[];dashed=1;" vertex="1" connectable="0" parent="F-6AjOzPrQF_bU0hyuUf-7">
          <mxGeometry x="-0.5897" y="-4" relative="1" as="geometry">
            <mxPoint as="offset" />
          </mxGeometry>
        </mxCell>
        <mxCell id="F-6AjOzPrQF_bU0hyuUf-3" value="AlarmMonitor&lt;div&gt;监视设备发出警报&lt;/div&gt;" style="rounded=1;whiteSpace=wrap;html=1;" vertex="1" parent="1">
          <mxGeometry x="340" y="380" width="120" height="60" as="geometry" />
        </mxCell>
        <mxCell id="F-6AjOzPrQF_bU0hyuUf-6" style="edgeStyle=orthogonalEdgeStyle;rounded=0;orthogonalLoop=1;jettySize=auto;html=1;exitX=0.5;exitY=1;exitDx=0;exitDy=0;entryX=1;entryY=0.5;entryDx=0;entryDy=0;" edge="1" parent="1" source="F-6AjOzPrQF_bU0hyuUf-4" target="F-6AjOzPrQF_bU0hyuUf-3">
          <mxGeometry relative="1" as="geometry" />
        </mxCell>
        <mxCell id="F-6AjOzPrQF_bU0hyuUf-9" value="提供规则设定&lt;div&gt;&lt;br&gt;&lt;/div&gt;" style="edgeLabel;html=1;align=center;verticalAlign=middle;resizable=0;points=[];dashed=1;" vertex="1" connectable="0" parent="F-6AjOzPrQF_bU0hyuUf-6">
          <mxGeometry x="-0.3111" relative="1" as="geometry">
            <mxPoint as="offset" />
          </mxGeometry>
        </mxCell>
        <mxCell id="F-6AjOzPrQF_bU0hyuUf-4" value="AlarmRule&lt;div&gt;定义警报规则&lt;/div&gt;" style="rounded=1;whiteSpace=wrap;html=1;" vertex="1" parent="1">
          <mxGeometry x="460" y="230" width="120" height="60" as="geometry" />
        </mxCell>
        <mxCell id="F-6AjOzPrQF_bU0hyuUf-5" style="edgeStyle=orthogonalEdgeStyle;rounded=0;orthogonalLoop=1;jettySize=auto;html=1;exitX=0.5;exitY=1;exitDx=0;exitDy=0;entryX=0;entryY=0.625;entryDx=0;entryDy=0;entryPerimeter=0;" edge="1" parent="1" source="F-6AjOzPrQF_bU0hyuUf-1" target="F-6AjOzPrQF_bU0hyuUf-3">
          <mxGeometry relative="1" as="geometry" />
        </mxCell>
        <mxCell id="F-6AjOzPrQF_bU0hyuUf-8" value="提供PLC读写服务&lt;div&gt;管理PLC链接&lt;/div&gt;" style="edgeLabel;html=1;align=center;verticalAlign=middle;resizable=0;points=[];dashed=1;" vertex="1" connectable="0" parent="F-6AjOzPrQF_bU0hyuUf-5">
          <mxGeometry x="-0.36" y="1" relative="1" as="geometry">
            <mxPoint as="offset" />
          </mxGeometry>
        </mxCell>
        <mxCell id="F-6AjOzPrQF_bU0hyuUf-11" value="&lt;h1&gt;PLC警报系统&lt;/h1&gt;&lt;div&gt;&lt;br&gt;&lt;/div&gt;" style="text;html=1;align=center;verticalAlign=middle;resizable=0;points=[];autosize=1;strokeColor=none;fillColor=none;" vertex="1" parent="1">
          <mxGeometry x="293" y="100" width="170" height="90" as="geometry" />
        </mxCell>
      </root>
    </mxGraphModel>
  </diagram>
</mxfile>
